<?xml version="1.0" encoding="utf-8"?>
<!-- Generator: Adobe Illustrator 25.3.1, SVG Export Plug-In . SVG Version: 6.00 Build 0)  -->
<svg version="1.1" id="Ebene_1" xmlns="http://www.w3.org/2000/svg" xmlns:xlink="http://www.w3.org/1999/xlink" x="0px" y="0px"
	 viewBox="0 0 425 271.62" style="enable-background:new 0 0 425 271.62;" xml:space="preserve">
<g>
	<path d="M0,221.45c9.85-5.26,11.89-14.16,11.27-24.28c-0.25-4.15-0.88-8.3-0.79-12.43c0.22-10.18,3.68-18.59,11.26-26.15
		c8.36-8.34,15.27-18.2,22.32-27.76c6.81-9.24,12.77-19.11,19.5-28.41c6.45-8.91,14.45-16.37,23.3-22.94
		c6.84-5.08,8.03-10.26,4.78-18.21c-0.21-0.51-0.41-1.03-0.63-1.54c-2.19-4.93-3.3-9.85,1-14.26c4.48-4.59,9.98-4.96,15.74-3.11
		c2.62,0.84,5.1,2.13,7.6,3.31c12.38,5.86,21.48,3.7,29.1-7.72c4.5-6.75,10.17-10.49,18.27-9.88c3.28,0.25,6.69,0.77,9.71,2
		c8.9,3.61,17.55,2.76,26.33-0.3c4.3-1.5,8.74-2.61,13.17-3.68c5.19-1.25,10.12-0.3,14.86,2.14c3.7,1.9,5.42,1.03,5.86-3.1
		c0.35-3.29,0.03-6.64,0.15-9.96c0.09-2.34,0.23-4.7,0.69-6.99c1.37-6.9,5.26-9.51,11.98-7.51c3.92,1.16,7.58,3.25,11.3,5.06
		c4.71,2.29,9.17,5.24,14.07,6.96c7.78,2.73,15.1,0.92,21.2-4.61c2.25-2.04,4.21-2.32,7.05-1.56c18.78,5.04,34.39,15.67,49.21,27.66
		c5.22,4.22,5.77,10.3,3.36,15.94c-3.03,7.07-7.29,13.61-10.75,20.51c-2.21,4.42-4.4,8.94-5.77,13.66
		c-1.95,6.69,0.26,12.17,6.27,15.59c3.78,2.15,8.05,3.85,12.31,4.67c8.02,1.54,14.08,5.33,18.12,12.47c1,1.78,2.56,3.27,3.98,4.78
		c8.88,9.45,18.55,9.6,27.78,0.45c2.16-2.15,4.17-4.45,6.38-6.55c5.94-5.63,12.72-4.18,14.34,3.79c1.18,5.8,0.6,12.05,0.15,18.06
		c-0.38,5.08-2.33,10.07-2.45,15.13c-0.14,5.86,0.62,11.8,1.62,17.6c0.74,4.31,0.44,5.52-3.91,5.27c-5.56-0.32-10.9-1.49-15.54-5.03
		c-7.2-5.49-8.97-5.19-14.6,1.83c-5.97,7.45-6.02,9.59,0.35,16.73c3.51,3.93,4.58,8.44,4.13,13.45c-0.43,4.81-1.03,9.61-1.61,14.89
		c-3.01-2.31-5.73-4.55-8.6-6.59c-10.13-7.21-20.87-9.78-32.81-4.55c-9.94,4.35-16.29,1.43-20.04-8.83
		c-1.09-2.99-2.05-6.03-3.3-8.95c-1.92-4.47-5.05-5.85-9.72-4.55c-4.4,1.22-6.99,4.22-5.78,8.62c3.13,11.38-1.84,20.45-7.18,29.67
		c-4.56,7.88-9.07,15.82-13.05,24c-2.77,5.7-3.17,11.99-1.91,18.3c0.66,3.3,0.49,6.12-3.72,6.86c-4.36,0.77-6.14-0.2-7.2-4.51
		c-2.96-12.02-10.75-20.7-19.62-28.66c-6.8-6.1-13.56-12.25-20.34-18.38c-4.98-4.5-7.15-10.03-6.25-16.75
		c0.22-1.63,0.36-3.43-0.1-4.96c-0.86-2.9-2.18-5.65-3.58-9.12c-11.33,11.22-21.96,21.26-25.05,36.68
		c-1.53,7.66-5.02,14.59-10.24,20.59c-7.82,9-17.78,12.79-29.05,9.74c-8.54-2.31-16.27-0.86-24.45,0.65
		c-8.52,1.58-17.22,2.91-25.85,3c-12.41,0.14-20.94-6.71-26.49-17.57c-5.77-11.29-7.42-23.69-9.93-35.87
		c-0.33-1.62-0.59-3.28-1.11-4.85c-1.88-5.78-4.99-7.55-11-6.69c-6.71,0.96-13.44,1.75-20.16,2.64c-8.59,1.14-14.8,5.1-16.82,14.11
		c-1.59,7.06-5.7,12.16-12.2,15.37c-7.61,3.77-11.08,3.2-16.87-2.88C0,223.11,0,222.28,0,221.45z"/>
</g>
</svg>
